<svg width="1199" height="125" viewBox="0 0 1199 125" fill="none" xmlns="http://www.w3.org/2000/svg">
<path d="M1196.9 43.8184L1187.26 46.5457C1186.66 44.9396 1185.76 43.379 1184.58 41.8639C1183.43 40.3184 1181.85 39.0457 1179.85 38.0457C1177.85 37.0457 1175.29 36.5457 1172.17 36.5457C1167.9 36.5457 1164.34 37.5305 1161.49 39.5002C1158.67 41.4396 1157.26 43.9093 1157.26 46.9093C1157.26 49.576 1158.23 51.682 1160.17 53.2275C1162.11 54.7729 1165.14 56.0608 1169.26 57.0911L1179.62 59.6366C1185.87 61.1517 1190.52 63.4699 1193.58 66.5911C1196.64 69.682 1198.17 73.6669 1198.17 78.5457C1198.17 82.5457 1197.02 86.1214 1194.72 89.2729C1192.44 92.4245 1189.26 94.9093 1185.17 96.7275C1181.08 98.5457 1176.32 99.4548 1170.9 99.4548C1163.78 99.4548 1157.88 97.9093 1153.22 94.8184C1148.55 91.7275 1145.59 87.2123 1144.35 81.2729L1154.53 78.7275C1155.5 82.4851 1157.34 85.3032 1160.03 87.182C1162.76 89.0608 1166.32 90.0002 1170.72 90.0002C1175.72 90.0002 1179.69 88.9396 1182.62 86.8184C1185.59 84.6669 1187.08 82.0911 1187.08 79.0911C1187.08 76.6669 1186.23 74.6366 1184.53 73.0002C1182.84 71.3336 1180.23 70.0911 1176.72 69.2729L1165.08 66.5457C1158.69 65.0305 1153.99 62.682 1150.99 59.5002C1148.02 56.2881 1146.53 52.2729 1146.53 47.4548C1146.53 43.5154 1147.64 40.0305 1149.85 37.0002C1152.09 33.9699 1155.14 31.5911 1158.99 29.8639C1162.87 28.1366 1167.26 27.2729 1172.17 27.2729C1179.08 27.2729 1184.5 28.7881 1188.44 31.8184C1192.41 34.8487 1195.23 38.8487 1196.9 43.8184Z" fill="white"/>
<path d="M1132.56 28.1819V37.2728H1096.38V28.1819H1132.56ZM1106.92 11.4546H1117.65V78C1117.65 81.0303 1118.09 83.3031 1118.97 84.8182C1119.88 86.3031 1121.03 87.3031 1122.42 87.8182C1123.84 88.3031 1125.34 88.5455 1126.92 88.5455C1128.1 88.5455 1129.07 88.4849 1129.83 88.3637C1130.59 88.2122 1131.19 88.091 1131.65 88L1133.83 97.6364C1133.1 97.9091 1132.09 98.1819 1130.78 98.4546C1129.48 98.7576 1127.83 98.9091 1125.83 98.9091C1122.8 98.9091 1119.83 98.2576 1116.92 96.9546C1114.04 95.6516 1111.65 93.6667 1109.74 91C1107.86 88.3334 1106.92 84.9697 1106.92 80.9091V11.4546Z" fill="white"/>
<path d="M1038.05 56.0002V98.0002H1027.32V28.182H1037.68V39.0911H1038.59C1040.23 35.5457 1042.71 32.6972 1046.05 30.5457C1049.38 28.3639 1053.68 27.2729 1058.95 27.2729C1063.68 27.2729 1067.82 28.2426 1071.36 30.182C1074.91 32.0911 1077.67 35.0002 1079.64 38.9093C1081.61 42.7881 1082.59 47.6972 1082.59 53.6366V98.0002H1071.86V54.3639C1071.86 48.879 1070.44 44.6063 1067.59 41.5457C1064.74 38.4548 1060.83 36.9093 1055.86 36.9093C1052.44 36.9093 1049.38 37.6517 1046.68 39.1366C1044.02 40.6214 1041.91 42.7881 1040.36 45.6366C1038.82 48.4851 1038.05 51.9396 1038.05 56.0002Z" fill="white"/>
<path d="M982.091 99.4548C975.364 99.4548 969.561 97.9699 964.682 95.0002C959.833 92.0002 956.091 87.8184 953.455 82.4548C950.848 77.0608 949.545 70.7881 949.545 63.6366C949.545 56.4851 950.848 50.182 953.455 44.7275C956.091 39.2426 959.758 34.9699 964.455 31.9093C969.182 28.8184 974.697 27.2729 981 27.2729C984.636 27.2729 988.227 27.879 991.773 29.0911C995.318 30.3032 998.545 32.2729 1001.45 35.0002C1004.36 37.6972 1006.68 41.2729 1008.41 45.7275C1010.14 50.182 1011 55.6669 1011 62.182V66.7275H957.182V57.4548H1000.09C1000.09 53.5154 999.303 50.0002 997.727 46.9093C996.182 43.8184 993.97 41.379 991.091 39.5911C988.242 37.8033 984.879 36.9093 981 36.9093C976.727 36.9093 973.03 37.9699 969.909 40.0911C966.818 42.182 964.439 44.9093 962.773 48.2729C961.106 51.6366 960.273 55.2426 960.273 59.0911V65.2729C960.273 70.5457 961.182 75.0154 963 78.682C964.848 82.3184 967.409 85.0911 970.682 87.0002C973.955 88.879 977.758 89.8184 982.091 89.8184C984.909 89.8184 987.455 89.4245 989.727 88.6366C992.03 87.8184 994.015 86.6063 995.682 85.0002C997.348 83.3639 998.636 81.3336 999.545 78.9093L1009.91 81.8184C1008.82 85.3336 1006.98 88.4245 1004.41 91.0911C1001.83 93.7275 998.652 95.7881 994.864 97.2729C991.076 98.7275 986.818 99.4548 982.091 99.4548Z" fill="white"/>
<path d="M888.67 56.0002V98.0002H877.943V28.182H888.307V39.0911H889.216C890.852 35.5457 893.337 32.6972 896.67 30.5457C900.004 28.3639 904.307 27.2729 909.58 27.2729C914.307 27.2729 918.443 28.2426 921.989 30.182C925.534 32.0911 928.292 35.0002 930.261 38.9093C932.231 42.7881 933.216 47.6972 933.216 53.6366V98.0002H922.489V54.3639C922.489 48.879 921.064 44.6063 918.216 41.5457C915.367 38.4548 911.458 36.9093 906.489 36.9093C903.064 36.9093 900.004 37.6517 897.307 39.1366C894.64 40.6214 892.534 42.7881 890.989 45.6366C889.443 48.4851 888.67 51.9396 888.67 56.0002Z" fill="white"/>
<path d="M829.932 99.4548C823.629 99.4548 818.098 97.9548 813.341 94.9548C808.614 91.9548 804.917 87.7578 802.25 82.3639C799.614 76.9699 798.295 70.6669 798.295 63.4548C798.295 56.182 799.614 49.8336 802.25 44.4093C804.917 38.9851 808.614 34.7729 813.341 31.7729C818.098 28.7729 823.629 27.2729 829.932 27.2729C836.235 27.2729 841.75 28.7729 846.477 31.7729C851.235 34.7729 854.932 38.9851 857.568 44.4093C860.235 49.8336 861.568 56.182 861.568 63.4548C861.568 70.6669 860.235 76.9699 857.568 82.3639C854.932 87.7578 851.235 91.9548 846.477 94.9548C841.75 97.9548 836.235 99.4548 829.932 99.4548ZM829.932 89.8184C834.72 89.8184 838.659 88.5911 841.75 86.1366C844.841 83.682 847.129 80.4548 848.614 76.4548C850.098 72.4548 850.841 68.1214 850.841 63.4548C850.841 58.7881 850.098 54.4396 848.614 50.4093C847.129 46.379 844.841 43.1214 841.75 40.6366C838.659 38.1517 834.72 36.9093 829.932 36.9093C825.144 36.9093 821.205 38.1517 818.114 40.6366C815.023 43.1214 812.735 46.379 811.25 50.4093C809.765 54.4396 809.023 58.7881 809.023 63.4548C809.023 68.1214 809.765 72.4548 811.25 76.4548C812.735 80.4548 815.023 83.682 818.114 86.1366C821.205 88.5911 825.144 89.8184 829.932 89.8184Z" fill="white"/>
<path d="M723.568 124.182V28.182H733.932V39.2729H735.205C735.992 38.0608 737.083 36.5154 738.477 34.6366C739.902 32.7275 741.932 31.0305 744.568 29.5457C747.235 28.0305 750.841 27.2729 755.386 27.2729C761.265 27.2729 766.447 28.7426 770.932 31.682C775.417 34.6214 778.917 38.7881 781.432 44.182C783.947 49.576 785.205 55.9396 785.205 63.2729C785.205 70.6669 783.947 77.076 781.432 82.5002C778.917 87.8942 775.432 92.076 770.977 95.0457C766.523 97.9851 761.386 99.4548 755.568 99.4548C751.083 99.4548 747.492 98.7123 744.795 97.2275C742.099 95.7123 740.023 94.0002 738.568 92.0911C737.114 90.1517 735.992 88.5457 735.205 87.2729H734.295V124.182H723.568ZM734.114 63.0911C734.114 68.3639 734.886 73.0154 736.432 77.0457C737.977 81.0457 740.235 84.182 743.205 86.4548C746.174 88.6972 749.811 89.8184 754.114 89.8184C758.598 89.8184 762.341 88.6366 765.341 86.2729C768.371 83.879 770.644 80.6669 772.159 76.6366C773.705 72.576 774.477 68.0608 774.477 63.0911C774.477 58.182 773.72 53.7578 772.205 49.8184C770.72 45.8487 768.462 42.7123 765.432 40.4093C762.432 38.076 758.659 36.9093 754.114 36.9093C749.75 36.9093 746.083 38.0154 743.114 40.2275C740.144 42.4093 737.902 45.4699 736.386 49.4093C734.871 53.3184 734.114 57.879 734.114 63.0911Z" fill="white"/>
<path d="M612.318 98.0002V28.182H622.682V39.0911H623.591C625.045 35.3639 627.394 32.4699 630.636 30.4093C633.879 28.3184 637.773 27.2729 642.318 27.2729C646.924 27.2729 650.758 28.3184 653.818 30.4093C656.909 32.4699 659.318 35.3639 661.045 39.0911H661.773C663.561 35.4851 666.242 32.6214 669.818 30.5002C673.394 28.3487 677.682 27.2729 682.682 27.2729C688.924 27.2729 694.03 29.2275 698 33.1366C701.97 37.0154 703.955 43.0608 703.955 51.2729V98.0002H693.227V51.2729C693.227 46.1214 691.818 42.4396 689 40.2275C686.182 38.0154 682.864 36.9093 679.045 36.9093C674.136 36.9093 670.333 38.3942 667.636 41.3639C664.939 44.3032 663.591 48.0305 663.591 52.5457V98.0002H652.682V50.182C652.682 46.2123 651.394 43.0154 648.818 40.5911C646.242 38.1366 642.924 36.9093 638.864 36.9093C636.076 36.9093 633.47 37.6517 631.045 39.1366C628.652 40.6214 626.712 42.682 625.227 45.3184C623.773 47.9245 623.045 50.9396 623.045 54.3639V98.0002H612.318Z" fill="white"/>
<path d="M564.307 99.4548C558.004 99.4548 552.473 97.9548 547.716 94.9548C542.989 91.9548 539.292 87.7578 536.625 82.3639C533.989 76.9699 532.67 70.6669 532.67 63.4548C532.67 56.182 533.989 49.8336 536.625 44.4093C539.292 38.9851 542.989 34.7729 547.716 31.7729C552.473 28.7729 558.004 27.2729 564.307 27.2729C570.61 27.2729 576.125 28.7729 580.852 31.7729C585.61 34.7729 589.307 38.9851 591.943 44.4093C594.61 49.8336 595.943 56.182 595.943 63.4548C595.943 70.6669 594.61 76.9699 591.943 82.3639C589.307 87.7578 585.61 91.9548 580.852 94.9548C576.125 97.9548 570.61 99.4548 564.307 99.4548ZM564.307 89.8184C569.095 89.8184 573.034 88.5911 576.125 86.1366C579.216 83.682 581.504 80.4548 582.989 76.4548C584.473 72.4548 585.216 68.1214 585.216 63.4548C585.216 58.7881 584.473 54.4396 582.989 50.4093C581.504 46.379 579.216 43.1214 576.125 40.6366C573.034 38.1517 569.095 36.9093 564.307 36.9093C559.519 36.9093 555.58 38.1517 552.489 40.6366C549.398 43.1214 547.11 46.379 545.625 50.4093C544.14 54.4396 543.398 58.7881 543.398 63.4548C543.398 68.1214 544.14 72.4548 545.625 76.4548C547.11 80.4548 549.398 83.682 552.489 86.1366C555.58 88.5911 559.519 89.8184 564.307 89.8184Z" fill="white"/>
<path d="M492.807 99.4548C486.261 99.4548 480.625 97.9093 475.898 94.8184C471.17 91.7275 467.534 87.4699 464.989 82.0457C462.443 76.6214 461.17 70.4245 461.17 63.4548C461.17 56.3639 462.473 50.1063 465.08 44.682C467.716 39.2275 471.383 34.9699 476.08 31.9093C480.807 28.8184 486.322 27.2729 492.625 27.2729C497.534 27.2729 501.958 28.182 505.898 30.0002C509.837 31.8184 513.064 34.3639 515.579 37.6366C518.095 40.9093 519.655 44.7275 520.261 49.0911H509.534C508.716 45.9093 506.898 43.0911 504.08 40.6366C501.292 38.1517 497.534 36.9093 492.807 36.9093C488.625 36.9093 484.958 38.0002 481.807 40.182C478.686 42.3336 476.246 45.379 474.489 49.3184C472.761 53.2275 471.898 57.8184 471.898 63.0911C471.898 68.4851 472.746 73.182 474.443 77.182C476.17 81.182 478.595 84.2881 481.716 86.5002C484.867 88.7123 488.564 89.8184 492.807 89.8184C495.595 89.8184 498.125 89.3336 500.398 88.3639C502.67 87.3942 504.595 86.0002 506.17 84.182C507.746 82.3639 508.867 80.182 509.534 77.6366H520.261C519.655 81.7578 518.155 85.4699 515.761 88.7729C513.398 92.0457 510.261 94.6517 506.352 96.5911C502.473 98.5002 497.958 99.4548 492.807 99.4548Z" fill="white"/>
<path d="M398.068 98V28.1818H408.795V98H398.068ZM403.523 16.5455C401.432 16.5455 399.629 15.8333 398.114 14.4091C396.629 12.9848 395.886 11.2727 395.886 9.27273C395.886 7.27273 396.629 5.56061 398.114 4.13636C399.629 2.71212 401.432 2 403.523 2C405.614 2 407.402 2.71212 408.886 4.13636C410.402 5.56061 411.159 7.27273 411.159 9.27273C411.159 11.2727 410.402 12.9848 408.886 14.4091C407.402 15.8333 405.614 16.5455 403.523 16.5455Z" fill="white"/>
<path d="M367.693 69.4544V28.1816H378.42V97.9998H367.693V86.1816H366.966C365.33 89.7271 362.784 92.7422 359.33 95.2271C355.875 97.6816 351.511 98.9089 346.239 98.9089C341.875 98.9089 337.996 97.9544 334.602 96.0453C331.208 94.1059 328.542 91.1968 326.602 87.318C324.663 83.4089 323.693 78.4847 323.693 72.5453V28.1816H334.42V71.818C334.42 76.9089 335.845 80.9695 338.693 83.9998C341.572 87.0301 345.239 88.5453 349.693 88.5453C352.36 88.5453 355.072 87.8635 357.83 86.4998C360.617 85.1362 362.951 83.0453 364.83 80.2271C366.739 77.4089 367.693 73.818 367.693 69.4544Z" fill="white"/>
<path d="M271.557 28.1819V37.2728H235.375V28.1819H271.557ZM245.92 11.4546H256.648V78C256.648 81.0303 257.087 83.3031 257.966 84.8182C258.875 86.3031 260.027 87.3031 261.42 87.8182C262.845 88.3031 264.345 88.5455 265.92 88.5455C267.102 88.5455 268.072 88.4849 268.83 88.3637C269.587 88.2122 270.193 88.091 270.648 88L272.83 97.6364C272.102 97.9091 271.087 98.1819 269.784 98.4546C268.481 98.7576 266.83 98.9091 264.83 98.9091C261.799 98.9091 258.83 98.2576 255.92 96.9546C253.042 95.6516 250.648 93.6667 248.739 91C246.86 88.3334 245.92 84.9697 245.92 80.9091V11.4546Z" fill="white"/>
<path d="M226.159 28.1818V37.2727H188.523V28.1818H226.159ZM199.795 98V18.5454C199.795 14.5454 200.735 11.2121 202.614 8.54541C204.492 5.87874 206.932 3.87874 209.932 2.54541C212.932 1.21208 216.098 0.54541 219.432 0.54541C222.068 0.54541 224.22 0.757533 225.886 1.18178C227.553 1.60602 228.795 1.99996 229.614 2.36359L226.523 11.6363C225.977 11.4545 225.22 11.2272 224.25 10.9545C223.311 10.6818 222.068 10.5454 220.523 10.5454C216.977 10.5454 214.417 11.4394 212.841 13.2272C211.295 15.0151 210.523 17.6363 210.523 21.0909V98H199.795Z" fill="white"/>
<path d="M143.489 99.6366C139.064 99.6366 135.049 98.8032 131.443 97.1366C127.837 95.4396 124.973 93.0002 122.852 89.8184C120.731 86.6063 119.67 82.7275 119.67 78.182C119.67 74.182 120.458 70.9396 122.034 68.4548C123.61 65.9396 125.716 63.9699 128.352 62.5457C130.989 61.1214 133.898 60.0608 137.079 59.3639C140.292 58.6366 143.519 58.0608 146.761 57.6366C151.004 57.0911 154.443 56.682 157.079 56.4093C159.746 56.1063 161.686 55.6063 162.898 54.9093C164.14 54.2123 164.761 53.0002 164.761 51.2729V50.9093C164.761 46.4245 163.534 42.9396 161.079 40.4548C158.655 37.9699 154.973 36.7275 150.034 36.7275C144.913 36.7275 140.898 37.8487 137.989 40.0911C135.079 42.3336 133.034 44.7275 131.852 47.2729L121.67 43.6366C123.489 39.3942 125.913 36.0911 128.943 33.7275C132.004 31.3336 135.337 29.6669 138.943 28.7275C142.579 27.7578 146.155 27.2729 149.67 27.2729C151.913 27.2729 154.489 27.5457 157.398 28.0911C160.337 28.6063 163.17 29.682 165.898 31.3184C168.655 32.9548 170.943 35.4245 172.761 38.7275C174.58 42.0305 175.489 46.4548 175.489 52.0002V98.0002H164.761V88.5457H164.216C163.489 90.0608 162.276 91.682 160.579 93.4093C158.883 95.1366 156.625 96.6063 153.807 97.8184C150.989 99.0305 147.549 99.6366 143.489 99.6366ZM145.125 90.0002C149.367 90.0002 152.943 89.1669 155.852 87.5002C158.792 85.8336 161.004 83.682 162.489 81.0457C164.004 78.4093 164.761 75.6366 164.761 72.7275V62.9093C164.307 63.4548 163.307 63.9548 161.761 64.4093C160.246 64.8336 158.489 65.2123 156.489 65.5457C154.519 65.8487 152.595 66.1214 150.716 66.3639C148.867 66.576 147.367 66.7578 146.216 66.9093C143.428 67.2729 140.822 67.8639 138.398 68.682C136.004 69.4699 134.064 70.6669 132.579 72.2729C131.125 73.8487 130.398 76.0002 130.398 78.7275C130.398 82.4548 131.776 85.2729 134.534 87.182C137.322 89.0608 140.852 90.0002 145.125 90.0002Z" fill="white"/>
<path d="M75.3182 97.9999V28.1817H85.6819V38.7272H86.4091C87.6819 35.2726 89.9849 32.4696 93.3182 30.3181C96.6516 28.1666 100.409 27.0908 104.591 27.0908C105.379 27.0908 106.364 27.106 107.546 27.1363C108.727 27.1666 109.621 27.212 110.227 27.2726V38.1817C109.864 38.0908 109.03 37.9545 107.727 37.7726C106.455 37.5605 105.106 37.4545 103.682 37.4545C100.288 37.4545 97.2576 38.1666 94.591 39.5908C91.9546 40.9848 89.8637 42.9242 88.3182 45.409C86.8031 47.8636 86.0455 50.6666 86.0455 53.8181V97.9999H75.3182Z" fill="white"/>
<path d="M32.1818 99.4548C25.6363 99.4548 20 97.9093 15.2727 94.8184C10.5454 91.7275 6.90905 87.4699 4.36359 82.0457C1.81814 76.6214 0.54541 70.4245 0.54541 63.4548C0.54541 56.3639 1.84844 50.1063 4.4545 44.682C7.09086 39.2275 10.7575 34.9699 15.4545 31.9093C20.1818 28.8184 25.6969 27.2729 32 27.2729C36.909 27.2729 41.3333 28.182 45.2727 30.0002C49.2121 31.8184 52.4394 34.3639 54.9545 37.6366C57.4697 40.9093 59.0303 44.7275 59.6363 49.0911H48.909C48.0909 45.9093 46.2727 43.0911 43.4545 40.6366C40.6666 38.1517 36.909 36.9093 32.1818 36.9093C28 36.9093 24.3333 38.0002 21.1818 40.182C18.0606 42.3336 15.6212 45.379 13.8636 49.3184C12.1363 53.2275 11.2727 57.8184 11.2727 63.0911C11.2727 68.4851 12.1212 73.182 13.8181 77.182C15.5454 81.182 17.9697 84.2881 21.0909 86.5002C24.2424 88.7123 27.9393 89.8184 32.1818 89.8184C34.9697 89.8184 37.5 89.3336 39.7727 88.3639C42.0454 87.3942 43.9697 86.0002 45.5454 84.182C47.1212 82.3639 48.2424 80.182 48.909 77.6366H59.6363C59.0303 81.7578 57.5303 85.4699 55.1363 88.7729C52.7727 92.0457 49.6363 94.6517 45.7272 96.5911C41.8484 98.5002 37.3333 99.4548 32.1818 99.4548Z" fill="white"/>
</svg>
